Coordinates
version=1
nRows=10
nColumns=40
inDegrees=yes

Units are S.I. units (second, meters, Newtons, ...)
Angles are in degrees.

endheader
time	pelvis_tilt	pelvis_list	pelvis_rotation	pelvis_tx	pelvis_ty	pelvis_tz	hip_flexion_r	hip_adduction_r	hip_rotation_r	knee_angle_r	knee_angle_r_beta	ankle_angle_r	subtalar_angle_r	mtp_angle_r	hip_flexion_l	hip_adduction_l	hip_rotation_l	knee_angle_l	knee_angle_l_beta	ankle_angle_l	subtalar_angle_l	mtp_angle_l	lumbar_extension	lumbar_bending	lumbar_rotation	arm_flex_r	arm_add_r	arm_rot_r	elbow_flex_r	pro_sup_r	wrist_flex_r	wrist_dev_r	arm_flex_l	arm_add_l	arm_rot_l	elbow_flex_l	pro_sup_l	wrist_flex_l	wrist_dev_l
     43.17000000	     -3.27721613	     -6.79352267	      3.68243600	      1.08007192	      0.93302025	      0.46092987	     11.16496227	      5.29499542	    -20.41056987	     12.26653379	     12.26653379	      7.56932355	      8.11915290	     -4.08057135	     32.29838478	    -14.74388978	      1.75871173	     67.44260841	     67.44260841	      8.10720899	    -18.10868307	     10.70064875	    -10.94255025	      8.34712941	      4.37227606	     13.12634856	    -14.36356671	    -10.88458678	     37.71214108	     45.86666809	      0.00000000	      0.00000000	      5.09310604	     -7.82047831	     -2.12181284	     47.76406110	     46.20081712	      0.00000000	      0.00000000
     43.18142857	     -3.35756324	     -6.79568780	      3.57629660	      1.07894991	      0.93347791	      0.46142771	     10.38794100	      5.47845636	    -20.28794204	     11.73615608	     11.73615608	      7.83101501	      8.48207151	     -4.07649935	     33.45654012	    -14.67880957	      1.37520684	     65.30315275	     65.30315275	      8.18763565	    -18.01579958	     10.73293601	    -10.97935039	      8.37973332	      4.36510075	     15.85307131	    -14.47456102	    -10.81279404	     39.17277089	     45.82449776	      0.00000000	      0.00000000	      3.30056753	     -7.63843649	     -1.75093859	     46.10114642	     46.13510959	      0.00000000	      0.00000000
     43.19285714	     -3.41027787	     -6.81939040	      3.48749340	      1.07785419	      0.93387068	      0.46186943	      9.57266180	      5.66847770	    -20.27425530	     11.18850803	     11.18850803	      8.08276127	      9.01023597	     -4.06846725	     34.38092007	    -14.60394476	      1.00782479	     62.86012261	     62.86012261	      8.12408952	    -17.90963511	     10.67415383	    -11.03698447	      8.44302032	      4.36180666	     18.56706698	    -14.59479707	    -10.47459572	     40.62932662	     45.76845969	      0.00000000	      0.00000000	      1.72574895	     -7.40756888	     -1.29361416	     43.91340060	     46.06018686	      0.00000000	      0.00000000
     43.20428571	     -3.47879377	     -6.82420591	      3.36115740	      1.07678551	      0.93414654	      0.46227005	      8.83313269	      5.80280027	    -20.32218959	     10.75486537	     10.75486537	      8.41984285	      9.66524023	     -3.97639325	     35.09273698	    -14.52824975	      0.55254344	     60.10484515	     60.10484515	      7.76441337	    -17.80877736	     10.15452133	    -11.04793213	      8.52020796	      4.86729059	     20.89491072	    -15.26297921	     -8.92304822	     42.02338459	     45.65531051	      0.00000000	      0.00000000	      1.10189876	     -6.93698104	     -0.50359073	     40.04263994	     45.96155982	      0.00000000	      0.00000000
     43.21571429	     -3.53277028	     -6.83449440	      3.25815975	      1.07571686	      0.93426670	      0.46258282	      8.09187876	      5.96019934	    -20.17011327	     10.31101185	     10.31101185	      8.70547471	      9.95764706	     -3.93411125	     35.66414464	    -14.37615684	      0.20936932	     57.16621928	     57.16621928	      7.63518927	    -17.67225387	     10.52326028	    -11.13456908	      8.56759213	      4.88191423	     23.47766211	    -15.30989971	     -8.65523937	     43.60444345	     45.60004374	      0.00000000	      0.00000000	     -0.48066808	     -6.71736741	     -0.13728284	     38.41380511	     45.89453491	      0.00000000	      0.00000000
     43.22714286	     -3.57479544	     -6.82275065	      3.14687443	      1.07470013	      0.93429595	      0.46279925	      7.38351632	      6.07121962	    -20.02324314	      9.96051560	      9.96051560	      9.02603510	     10.21117068	     -3.91865169	     36.03947421	    -14.17371255	     -0.12080533	     53.96286471	     53.96286471	      7.52136653	    -17.46182785	     10.95809161	    -11.23492766	      8.58446291	      5.01730505	     25.91641936	    -15.38464233	     -8.32067761	     45.06992032	     45.54533639	      0.00000000	      0.00000000	     -1.87480173	     -6.50384398	      0.22842332	     36.71848110	     45.82721169	      0.00000000	      0.00000000
     43.23857143	     -3.65713568	     -6.86321909	      3.06890017	      1.07364696	      0.93402920	      0.46290501	      6.72969352	      6.22819212	    -19.90320945	      9.61801846	      9.61801846	      9.39203093	     10.44541169	     -3.86894197	     36.37891214	    -13.97801426	     -0.35855464	     50.59722274	     50.59722274	      7.35110169	    -17.16784919	     11.33112607	    -11.25230960	      8.68079785	      5.05178417	     28.33453642	    -15.44624278	     -7.71977119	     46.76360907	     45.47101103	      0.00000000	      0.00000000	     -3.12555414	     -6.24856067	      0.70040527	     34.67174967	     45.74583664	      0.00000000	      0.00000000
     43.25000000	     -3.78024998	     -6.86971955	      2.93096978	      1.07258616	      0.93361877	      0.46292527	      6.18654659	      6.31108853	    -19.72298771	      9.41926614	      9.41926614	      9.88462244	     10.63457706	     -3.57386690	     36.56151767	    -13.76322327	     -0.67722904	     46.94744347	     46.94744347	      6.97120421	    -16.78050365	     11.08700957	    -11.25527755	      8.73285717	      5.57725352	     30.09186670	    -16.22495748	     -5.84551668	     49.32999036	     45.31959855	      0.00000000	      0.00000000	     -3.69474836	     -5.95334189	      1.65435976	     31.72421763	     45.60539894	      0.00000000	      0.00000000
     43.26142857	     -3.90070671	     -6.83764600	      2.83693121	      1.07154699	      0.93306210	      0.46279250	      5.64676776	      6.35302474	    -19.46786527	      9.22562086	      9.22562086	     10.30986952	     10.61297177	     -3.64817082	     36.65344185	    -13.45202370	     -0.92854718	     43.19580430	     43.19580430	      6.89946345	    -16.11393751	     11.53044598	    -11.26231071	      8.70168666	      5.62552021	     32.37103183	    -16.09973808	     -5.77690022	     50.93504606	     45.27408325	      0.00000000	      0.00000000	     -5.15228448	     -5.79969150	      1.88001430	     30.83097344	     45.54992058	      0.00000000	      0.00000000
     43.27285714	     -4.16085593	     -6.94601735	      2.76262279	      1.07041025	      0.93206256	      0.46253611	      5.31733382	      6.50735133	    -19.27916110	      9.11750197	      9.11750197	     10.69814816	     10.56820133	     -3.76361818	     36.89924564	    -13.25927614	     -1.10768916	     39.43972148	     39.43972148	      6.88472674	    -15.10145223	     11.95415880	    -11.08235762	      8.84974711	      5.92044434	     34.56820923	    -16.28558633	     -5.77537863	     52.28011934	     45.23919151	      0.00000000	      0.00000000	     -6.44475070	     -5.57864249	      2.03546247	     30.14603612	     45.50679511	      0.00000000	      0.00000000
